<?xml version="1.0" encoding="UTF-8"?>
<svg id="Layer_1" data-name="Layer 1" xmlns="http://www.w3.org/2000/svg" viewBox="0 0 56.805 142.746">
  <defs>
    <style>
      .cls-1 {
        fill: #c0a033;
      }
    </style>
  </defs>
  <path class="cls-1" d="m48.643,67.34c1.448.194,2.935.26,4.089,1.334.369-.19.336-.512.388-.788.078-.406.14-.814.217-1.22.036-.188.098-.383.334-.384.317-.001.339.254.341.476.011,1.061.252,2.087.43,3.124.191,1.114.445,2.211.782,3.288.125.399.197.801.234,1.215.08.899-.172,1.662-.981,2.122-1.171.668-1.245,1.601-.254,2.687.709.777,1.416,1.564,2.048,2.404.815,1.083.705,1.682-.418,2.43-.718.479-1.491.875-2.245,1.298-.362.203-.727.398-1.013.707-.502.543-.682,1.146-.387,1.865.202.493.47.941.794,1.358.415.535.855,1.052,1.246,1.603,1.597,2.254,1.235,3.477-1.31,4.471-.525.205-1.06.385-1.586.586-.316.121-.637.237-.932.398-.685.373-.832.698-.713,1.481.097.639.367,1.224.595,1.82.175.457.353.91.449,1.393.245,1.236-.173,2.033-1.357,2.495-.418.163-.864.251-1.297.375-2.113.605-2.932,1.897-2.54,4.076.101.56.178,1.114.161,1.68-.034,1.153-.512,1.796-1.607,2.187-.466.166-.95.206-1.438.254-2.256.223-3.08.966-3.592,3.205-.159.696-.278,1.403-.473,2.089-.739,2.589-2.119,3.612-4.812,3.393-1.171-.095-1.934.417-2.647,1.181-.288.308-.417.711-.564,1.098-.268.705-.596,1.381-.996,2.02-1.152,1.84-2.828,2.86-4.982,2.755-2.257-.11-3.472,1.042-4.284,2.937-.37.863-.787,1.708-1.234,2.533-.647,1.196-1.677,1.795-3.041,1.793-.94-.002-1.88-.02-2.82-.03-1.56-.017-2.281.455-2.761,1.953-.343,1.072-.58,2.178-.867,3.268-.115.436-.211.879-.36,1.303-.262.747-.841,1.256-1.348,1.162-.68-.127-.996-.631-1.119-1.265-.38-1.955-.849-3.898-.811-5.911.006-.301.005-.605-.033-.902-.12-.932-.52-1.726-1.246-2.333-2.925-2.444-3.736-5.7-3.556-9.322.075-1.502.238-2.999.331-4.5.09-1.45-.182-2.842-.721-4.19-.35-.874-.647-1.767-.607-2.731.259-.298.261-.595-.005-.891-.072-.647.074-1.276.212-1.894.742-3.306,1.714-6.528,3.615-9.389.098.089.196.177.294.266-.892,2.314-1.869,4.598-2.449,7.022-.449,1.877-.681,3.774-.566,5.704.027.449.121.894.153,1.343.028.392.214.634.584.725.428.106.49-.267.607-.519,1.065-2.29,2.384-4.439,3.648-6.618.547-.943,1.148-1.854,1.729-2.778.12-.191.231-.398.392-.55,1.192-1.13,2.573-1.68,3.8.276.806,1.284.789,2.675.519,4.041-.547,2.771-1.922,5.126-3.969,7.069-.939.891-2.032,1.51-3.317,1.832-2.054.516-2.822,1.511-2.817,3.626.005,2.102-.209,4.215.24,6.302.39,1.814,1.28,3.281,2.9,4.248.844.504.918.489,1.343-.373,1.048-2.126,2.127-4.235,3.34-6.272,1.253-2.105,2.631-4.122,4.25-5.966.341-.388.662-.801,1.181-1.158.182.445.02.775-.078,1.111-.494,1.699-1.163,3.336-1.749,5.003-.8,2.276-1.501,4.576-1.454,7.028.005.263-.019.536.041.787.128.532.596.677.991.292,1.025-.996,2.069-1.981,2.782-3.244.768-1.36,1.841-2.467,2.916-3.573.517-.532,1.125-.799,1.897-.844,1.939-.115,3.418-1.042,4.394-2.74.604-1.049.996-2.188,1.409-3.318.698-1.91,1.716-3.592,3.381-4.825.669-.495,1.368-.946,2.152-1.221,2.762-.968,4.362-2.953,5.101-5.72.291-1.091.626-2.167,1.09-3.199.958-2.135,2.419-3.83,4.538-4.836,2.65-1.257,3.895-3.423,4.286-6.199.502-3.566.488-7.121-.314-10.649-.22-.966-.229-1.946-.143-2.92.136-1.541.869-2.776,2.062-3.749.349-.285.722-.551,1.024-.881.538-.589.483-1.117-.116-1.656-.111-.1-.231-.2-.364-.265-1.385-.68-1.644-1.842-1.405-3.229.07-.407.108-.82.16-1.23.075-.071.15-.142.225-.213ZM10.493,104.245c-1.684.905-1.934,1.138-2.819,2.651-1.101,1.881-2.058,3.837-3.035,5.784-.451.899-.492,1.774-.257,2.722.092.369.241.507.605.476.869-.074,1.686-.235,2.409-.807,2.04-1.616,3.161-3.756,3.755-6.242.382-1.601.365-3.121-.659-4.584Z"/>
  <path class="cls-1" d="m49.064,28.238c-1.63,1.077-3.222,2.203-4.708,3.476-.913.783-1.412,1.786-1.366,2.97.167,4.319.322,8.641,1.343,12.873.567,2.352,1.42,4.587,2.685,6.656.297.486.522.998.67,1.543.062.228.022.452-.183.607-.203.154-.354-.036-.498-.114-2.016-1.096-3.287-2.804-4.037-4.941-.588-1.678-.808-3.433-1.093-5.173-.559-3.411-1-6.84-1.404-10.272-.009-.075-.017-.149-.029-.224-.272-1.692-.693-2.053-2.386-1.944-1.124.073-2.241.24-3.373.19-1.025-.046-2.009-.247-2.937-.695-.287-.139-.539-.309-.417-.683.11-.336.415-.258.662-.258,1.164,0,2.327.023,3.491-.064,3.943-.292,7.293-1.922,10.229-4.493.791-.693,1.6-1.38,2.162-2.286.852-1.374.492-2.737-.893-3.554-.319-.188-.515-.205-.723.148-.286.484-.595.96-.947,1.396-.869,1.075-1.984,1.571-3.38,1.327-.026-.108-.052-.216-.078-.323.823-.634,1.647-1.269,2.623-2.021-1.611-.866-3.124-1.68-4.637-2.493-.026-.171-.053-.342-.079-.513.206-.226.405-.068.61.007.811.296,1.621.595,2.437.876.231.079.478.26.738.01.045-.454-.358-.623-.603-.872-.845-.857-1.719-1.686-2.575-2.532-.144-.142-.422-.292-.183-.534.221-.223.408.017.579.142.941.687,1.874,1.385,2.819,2.068.396.286.81.549,1.288.681.833.229,1.26-.008,1.56-.83.251-.687.196-1.413.273-2.12.263-2.431.509-4.865.556-7.312.041-2.164-1.111-3.455-3.267-3.687-1.163-.125-1.958.44-2.456,1.429-.524,1.039-.984,2.11-1.473,3.167-.111.239-.226.475-.342.711-.131.268-.325.247-.56.138-.2-.093-.3-.222-.233-.436.09-.286.193-.569.296-.851.764-2.08,1.535-4.157,2.293-6.239.273-.75.263-.771-.526-.993-1.585-.445-3.125-.306-4.606.415-1.745.849-3.02,2.208-4.075,3.8-1.483,2.241-2.211,4.752-2.628,7.374-.083.52-.164,1.041-.211,1.565-.097,1.101.38,1.902,1.415,2.283.915.337,1.858.599,2.785.902.999.327,1.988.679,2.994,1.24-.677.492-1.378.747-2.149.798-2.587.171-3.474.858-4.216,3.403-1.944,6.67-3.876,13.344-5.8,20.02-.939,3.255-2.051,6.441-3.628,9.45-1.14,2.175-2.502,4.196-4.135,6.033-.174.196-.348.395-.499.609-.059.084-.055.213-.108.447,2.924.577,5.515,1.701,6.949,4.632-.476.146-.836.113-1.119-.275-1.293-1.77-3.153-2.607-5.188-3.16-1.982-.538-2.208-1.176-.941-2.802,3.086-3.959,4.918-8.493,6.162-13.304.989-3.823,1.559-7.733,2.413-11.585,1.065-4.804,2.13-9.61,3.093-14.436.596-2.983.98-6.008,1.502-9.007.489-2.81,1.647-5.302,3.716-7.315,2.034-1.979,4.489-2.993,7.315-3.024,1.617-.018,3.23.035,4.839-.205.862-.129,1.725-.003,2.576.177.222.047.32.157.319.376-.001.22-.111.31-.323.373-.434.128-1.088-.15-1.265.415-.145.463.282.909.472,1.351,1.753,4.086,2.105,8.351,1.651,12.719-.093.897-.199,1.799-.403,2.675-.147.635-.042,1.175.219,1.736.397.853.829,1.686,1.336,2.479.558.874.85,1.815.888,2.866.166,4.587.334,9.173.397,13.763.039,2.821.068,5.643.144,8.463.071,2.614-.439,5.166-.742,7.74-.017.148-.06.296-.111.436-.062.17-.217.181-.369.167-.165-.014-.295-.099-.294-.27.001-.3.029-.6.052-.9.288-3.75.66-7.495.777-11.257.132-4.259-.261-8.495-.534-12.737-.051-.788-.119-1.575-.179-2.362.036-.11.016-.231-.095-.245-.146-.018-.268.068-.324.219Z"/>
  <path class="cls-1" d="m30.892,34.053c.655.718.937,1.574,1.112,2.529.769,4.213,1.644,8.405,2.298,12.639.855,5.529,1.036,11.066.418,16.638-.843,7.596-2.928,14.871-5.527,22.019-.578,1.591-1.36,3.093-2.155,4.586-.103.193-.197.447-.489.3-.218-.11-.122-.317-.079-.492.282-1.131.619-2.244,1.067-3.321,2.462-5.915,4.334-12.004,5.401-18.33.948-5.622,1.258-11.274.884-16.97-.311-4.736-1.015-9.414-1.893-14.071-.061-.324-.06-.67-.381-.994-.379,1.153-.299,2.321-.546,3.431-.122-.003-.244-.006-.366-.009,0-2.624,0-5.248.001-7.872.085-.029.17-.057.254-.086Z"/>
  <path class="cls-1" d="m17.664,114.405c-.195-.071-.51-.104-.421-.48.06-.254.166-.498.259-.743,2.213-5.826,4.746-11.519,7.177-17.254.133-.314.295-.607.518-.866.103-.12.221-.203.382-.125.153.074.198.198.139.362-.064.176-.117.357-.185.532-2.326,5.94-4.517,11.935-7.218,17.722-.095.204-.182.412-.287.611-.066.124-.118.288-.363.242Z"/>
  <path class="cls-1" d="m40.547,98.206c-.429-.85-.46-17.692-.24-18.807.068.134-.064-.078.081-.036.031.009.058.048.078.079.13.204.079.434.079.653.003,6.037.002,12.074.002,18.111Z"/>
  <path class="cls-1" d="m29.152,57.863c-.267,1.655-.532,3.311-.803,4.966-.128.781-.161.8-.777.663-.745-.165-.308-.613-.209-.939.473-1.569.971-3.13,1.459-4.694.11.001.22.003.329.004Z"/>
  <path class="cls-1" d="m29.706,51.541c.182-1.588.323-3.181.565-4.76.106-.692-.076-1.439.343-2.079,0,0,.075.009.075.009l.075-.009c.154.975-.198,1.912-.227,2.88-.036,1.218-.268,2.43-.425,3.643-.013.101-.1.193-.154.289-.084.009-.168.018-.252.028Z"/>
  <path class="cls-1" d="m29.706,51.541c.084-.009.168-.018.252-.028-.103,1.289-.065,2.596-.484,3.846-.07.002-.14.003-.209.002.147-1.273.294-2.547.441-3.82Z"/>
  <path class="cls-1" d="m4.25,99.674c-.098-.089-.196-.177-.294-.266.154-.581.52-1.023,1.028-1.597-.056.826-.376,1.352-.734,1.863Z"/>
  <path class="cls-1" d="m25.59,94.637c.183-.376.365-.752.548-1.128.12.002.241.003.361.005-.08.426-.298.787-.529,1.144-.127-.007-.253-.014-.38-.02Z"/>
  <path class="cls-1" d="m30.636,42.011c.122.003.244.006.366.009.117.625-.148,1.206-.208,1.81-.064.005-.127,0-.19-.012-.023-.603-.081-1.206.031-1.807Z"/>
  <path class="cls-1" d="m29.265,55.361c.07,0,.14,0,.209-.002-.034.53.136,1.085-.192,1.579-.079.005-.159.011-.238.016l.221-1.594Z"/>
  <path class="cls-1" d="m.129,110.69c.266.295.264.592.005.891-.181-.296-.174-.593-.005-.891Z"/>
  <path class="cls-1" d="m29.044,56.954c.079-.005.159-.011.238-.016-.018.312.021.632-.131.925-.11-.001-.22-.003-.329-.004.074-.302.148-.603.222-.905Z"/>
  <path class="cls-1" d="m41.852,24.4c.026.108.052.216.078.323-.145.111-.264.057-.305-.093-.044-.163.062-.241.227-.231Z"/>
  <path class="cls-1" d="m39.759,19.372c.026.171.053.342.079.513-.423-.11-.323-.301-.079-.513Z"/>
  <path class="cls-1" d="m30.605,43.818c.063.013.126.017.19.012-.01.291-.02.581-.031.872,0,0-.075.009-.075.009,0,0-.075-.009-.075-.009-.034-.294-.094-.588-.009-.883Z"/>
  <path class="cls-1" d="m26.499,93.514c-.12-.002-.24-.003-.361-.005.013-.07.012-.147.043-.208.072-.142.112-.389.349-.241.219.136.01.303-.031.454Z"/>
  <path class="cls-1" d="m30.892,34.053c-.085.029-.17.057-.254.086-.047-.129-.105-.274.08-.324.034-.009.115.154.175.238Z"/>
  <path class="cls-1" d="m49.064,28.238c.056-.151.178-.238.324-.219.111.014.131.136.095.245-.14-.009-.279-.017-.419-.026Z"/>
  <path class="cls-1" d="m25.59,94.637c.127.007.253.014.38.02-.088.123-.097.36-.351.243-.157-.072-.026-.175-.029-.263Z"/>
  <path class="cls-1" d="m48.643,67.34c-.075.071-.15.142-.225.213-.005-.156.067-.23.225-.213Z"/>
</svg>