<?xml version="1.0" encoding="UTF-8"?>
<svg id="Layer_1" data-name="Layer 1" xmlns="http://www.w3.org/2000/svg" viewBox="0 0 267.914 83.197">
  <defs>
    <style>
      .cls-1 {
        fill: #c0a033;
      }

      .cls-2 {
        fill: #c09f32;
      }

      .cls-3 {
        fill: #040404;
      }

      .cls-4 {
        fill: #9f9f9f;
      }

      .cls-5 {
        fill: #d8c380;
      }

      .cls-6 {
        fill: #020202;
      }

      .cls-7 {
        fill: #cfb765;
      }

      .cls-8 {
        fill: #8d8d8d;
      }

      .cls-9 {
        fill: #282828;
      }

      .cls-10 {
        fill: gray;
      }

      .cls-11 {
        fill: #737373;
      }

      .cls-12 {
        fill: #535353;
      }

      .cls-13 {
        fill: #606060;
      }

      .cls-14 {
        fill: #070707;
      }

      .cls-15 {
        fill: #d2d2d2;
      }

      .cls-16 {
        fill: #404040;
      }

      .cls-17 {
        fill: #c1a137;
      }

      .cls-18 {
        fill: #010101;
      }
    </style>
  </defs>
  <g>
    <path class="cls-18" d="m83.265,19.719c-.028-.478-.091-.956-.079-1.433.089-3.649-.708-2.95,3.258-3.867,3.298-.762,6.648-.975,9.96-.026,4.835,1.386,8.122,5.359,8.633,10.387.259,2.552.217,5.12.07,7.669-.174,3.015-2.247,4.967-5.259,5.21-.715.058-1.438.026-2.157.026-22.382,0-44.765-.003-67.147.007-1.937,0-3.868.026-5.444-1.345-.579-.503-.978-.149-1.473.12-7.775,4.218-15.783-.317-16.167-9.154-.091-2.084-.038-4.151.699-6.151,2.159-5.857,7.885-8.79,14.148-7.104,1.251.337,2.283.576,3.251-.497.386-.428.932-.534,1.522-.576,2.164-.152,2.27-.09,2.275,2.132.011,4.958-.008,9.917.009,14.875.008,2.311.178,2.494,2.428,2.495,21.583.009,43.166.01,64.749,0,2.167,0,2.33-.191,2.371-2.293.022-1.119.028-2.24,0-3.359-.113-4.525-2.716-7.255-7.239-7.631-2.667-.222-5.244.349-7.832.846-.191-.11-.382-.22-.574-.33h-.002Zm-60.155,6.262c0-1.753-.016-3.507.008-5.26.01-.718-.181-1.247-.938-1.439-3.295-.834-6.359-.127-7.968,3.406-.681,1.495-.732,3.08-.551,4.684.503,4.462,3.925,6.645,8.215,5.326.952-.293,1.269-.766,1.247-1.697-.04-1.673-.011-3.347-.012-5.02h0Z"/>
    <path d="m117.416,1.914c.274,3.432.088,6.87.11,10.305.036,5.839.002,11.678.014,17.517.005,2.537.212,2.75,2.712,2.753,7.915.011,15.83.012,23.744,0,2.559-.004,2.731-.183,2.738-2.724.012-4.479-.005-8.958.007-13.437.005-1.905.025-1.909,1.989-1.928.959-.009,1.923.058,2.877-.017,1.078-.084,1.353.384,1.344,1.389-.038,4.479-.016,8.958-.016,13.437,0,.4-.003.8,0,1.2.021,2.063.022,2.08,2.095,2.082,8.155.007,16.309.011,24.464-.002,2.522-.004,2.659-.163,2.664-2.771.008-4.559.033-9.119-.019-13.677-.013-1.179.235-1.827,1.568-1.652,1.48.194,3.361-.653,4.359.386.887.924.268,2.744.279,4.166.033,4.159.031,8.318.006,12.477-.024,4.093-2.097,6.229-6.194,6.248-8.954.042-17.908.007-26.862.027-1.007.002-1.886-.099-2.505-1.031-.533-.802-1.144-.942-1.927-.188-1.043,1.003-2.412,1.2-3.792,1.201-9.913.01-19.827.038-29.74-.013-3.772-.02-5.982-2.186-6.011-5.991-.073-9.598-.005-19.196-.049-28.794-.006-1.223.473-1.518,1.561-1.453,1.354.08,2.714.062,4.072.086.171.134.341.269.512.403h0Z"/>
    <path class="cls-6" d="m199.073,18.811c-.322-5.844-.801-4.925,4.258-4.944,6.903-.026,11.629,4.427,12.103,11.279.16,2.306.145,4.635.041,6.946-.152,3.394-2.265,5.503-5.656,5.566-4.87.09-9.743-.004-14.614.049-1.18.013-1.505-.413-1.472-1.541.134-4.476-.628-3.593,3.621-3.664,3.194-.053,6.389.009,9.583-.018,2.124-.018,2.282-.197,2.319-2.343.021-1.198.038-2.398-.004-3.595-.167-4.786-2.837-7.482-7.65-7.73-.795-.041-1.594-.006-2.53-.006h.001Z"/>
    <path class="cls-1" d="m94.664,67.868c1.465,1.025,2.633,2.195,2.976,3.957.598,3.074-1.163,5.924-4.231,6.871-2.031.627-4.119.442-6.188.42-1.502-.016-3.391.642-4.411-.288-1.15-1.049-.402-3.018-.423-4.578-.065-4.715-.036-9.432-.017-14.147.008-1.856.04-1.878,1.839-1.903,1.917-.026,3.836-.045,5.752.015.869.027,1.758.161,2.591.405,3.724,1.091,5.081,5.03,2.87,8.226-.222.321-.465.628-.758,1.023h0Zm-5.44,7.545c.716,0,1.443.077,2.147-.016,1.56-.205,2.527-1.276,2.528-2.68.002-1.395-.976-2.503-2.526-2.683-1.023-.119-2.068-.077-3.103-.069-2.16.015-2.188.025-2.175,2.274.021,3.663-.399,3.189,3.129,3.174Zm-.492-8.697c.74-.03,1.633.11,2.464-.234.937-.387,1.636-1.034,1.681-2.111.047-1.141-.483-1.997-1.553-2.439-.434-.18-.912-.291-1.38-.348-3.641-.438-4.055.009-3.884,3.68.055,1.17.51,1.558,1.588,1.456.315-.03.635-.005,1.083-.005h.001Z"/>
    <path class="cls-1" d="m53.577,68.722c0-2.953.041-5.906-.02-8.858-.025-1.209.335-1.754,1.621-1.685,2.542.135,5.096-.174,7.633.326,4.931.973,8.183,4.884,8.238,9.998.058,5.332-3.063,9.242-8.132,10.289-2.693.556-5.406.233-8.109.342-1.17.047-1.241-.675-1.236-1.554.017-2.953.007-5.905.005-8.858Zm3.732-.092h-.008v3.346c0,2.501,1.286,3.639,3.857,3.412,3.461-.305,5.972-2.927,6.189-6.462.191-3.122-2.061-6.188-5.191-6.851-1.15-.244-2.375-.122-3.565-.188-.895-.05-1.305.325-1.29,1.246.029,1.832.009,3.664.009,5.496h0Z"/>
    <path class="cls-2" d="m153.852,68.641c0-2.956-.024-5.912.01-8.868.018-1.54.127-1.558,1.921-1.588,1.076-.018,1.88.056,1.813,1.496-.089,1.913.013,3.835-.03,5.751-.023,1.019.362,1.437,1.398,1.414,2.075-.045,4.153-.053,6.228.003,1.163.031,1.539-.46,1.505-1.571-.056-1.836-.045-3.675-.002-5.512.036-1.533.1-1.555,1.703-1.568,1.629-.014,1.785.055,1.792,1.458.029,5.992.028,11.984,0,17.976-.007,1.46-.122,1.502-1.742,1.5-1.631-.002-1.716-.037-1.752-1.506-.046-1.916-.032-3.835-.01-5.752.01-.88-.308-1.327-1.248-1.315-2.156.028-4.313.04-6.468-.006-1.031-.022-1.424.39-1.403,1.406.039,1.917-.063,3.838.028,5.751.072,1.518-.867,1.431-1.868,1.426-.979-.004-1.93.134-1.895-1.389.071-3.034.021-6.071.019-9.107h0Z"/>
    <path class="cls-17" d="m99.276,78.868c-.258-.71.134-1.275.34-1.861,1.983-5.642,3.97-11.282,5.986-16.912.254-.71.275-1.714,1.272-1.846,1.02-.135,2.078-.199,3.088.077.378.103.547.549.683.933,2.227,6.316,4.458,12.631,6.673,18.951.071.203-.017.462-.033.716-.249.07-.473.175-.701.19-1.967.124-3.267-.721-3.901-2.535-.871-2.471-.373-2.205-3.13-2.24-.319-.004-.639-.017-.957.002-1.266.077-2.699-.428-3.756.236-.988.621-1.01,2.086-1.384,3.199-.326.971-.818,1.512-1.893,1.363-.764-.105-1.585.222-2.286-.274h0Zm6.557-8.158c1.517.342,2.791.182,4.057.178.617-.002.878-.39.671-.944-.734-1.964-1.219-4.03-2.355-6.272-.961,2.501-1.748,4.618-2.373,7.038Z"/>
    <path class="cls-17" d="m133.211,78.904c-.162-.953.194-1.599.429-2.266,1.96-5.563,3.971-11.108,5.858-16.695.467-1.381,1.16-1.848,2.586-1.797,1.306.047,2.191.189,2.69,1.667,1.938,5.738,4.019,11.428,6.036,17.14.158.449.272.922.333,1.393.025.19-.091.476-.241.597-.891.718-3.375.027-3.839-1.044-.032-.073-.052-.151-.081-.225-.891-2.221-2.565-3.332-5.022-3.332-.399,0-.797-.005-1.196,0-2.381.032-2.132-.299-2.991,2.136-.697,1.976-2.217,2.785-4.561,2.427h0Zm11.468-8.184c-.781-2.292-1.365-4.591-2.625-7.087-.785,2.28-1.438,4.152-2.072,6.031-.264.781.005,1.251.87,1.235,1.187-.022,2.382.147,3.827-.179h0Z"/>
    <path class="cls-6" d="m22.399,70.986c-7.214-.52-14.427-1.05-21.618-1.844-.302-.337.143-.517.166-.785,8.736-.84,17.472-1.695,26.24-2.123,4.266-.208,8.427.472,12.43,2.014.033.309.066.618.099.928-5.291,2.049-10.739,2.718-16.36,1.868-.302-.306-.618-.361-.956-.057h0Z"/>
    <path class="cls-6" d="m221.998,69.137c-8.339.95-16.712,1.526-25.079,2.138-4.258.311-8.452-.21-12.52-1.578-.601-.202-1.232-.329-1.672-.834.157-.728.824-.684,1.318-.864,4.746-1.729,9.652-2.088,14.644-1.671,5.176.433,10.352.868,15.527,1.315,2.548.22,5.093.47,7.639.706.009.27.381.473.143.788h0Z"/>
    <path class="cls-1" d="m130.782,66.188c0,1.993.073,3.989-.015,5.979-.208,4.718-3.386,7.464-8.04,7.059-.896-.078-1.748-.304-2.471-.802-.668-.46-1.789-.728-1.526-1.842.238-1.007,2.275-1.742,3.296-1.338,2.706,1.071,4.796-.164,4.962-3.127.156-2.782.055-5.578.064-8.369.004-1.116-.007-2.232.002-3.348.019-2.238.101-2.254,2.251-2.229,1.152.014,1.533.444,1.503,1.56-.058,2.151-.017,4.305-.017,6.457h-.009Z"/>
    <path class="cls-2" d="m78.122,68.746c0,2.954.026,5.908-.011,8.861-.019,1.506-.123,1.503-1.955,1.541-1.106.023-1.804-.111-1.788-1.515.066-5.747.008-11.495.067-17.242.02-1.972,1.057-2.602,2.958-2.054.884.255.715.953.719,1.548.021,2.954.01,5.907.01,8.861Z"/>
    <path class="cls-3" d="m87.022,44.439c.081-1.877,1.625-3.277,3.467-3.143,1.862.135,3.121,1.652,2.99,3.601-.117,1.744-1.602,3.104-3.33,3.051-1.814-.057-3.208-1.621-3.127-3.508h0Z"/>
    <path class="cls-3" d="m181.746,44.17c.217-1.668,1.192-2.574,2.828-2.814.306.389.616.4.931.011,2.156.86,3.02,2.094,2.689,3.836-.282,1.482-1.474,2.597-2.926,2.735-1.626.155-2.761-.759-3.52-2.832.391-.313.383-.625-.003-.936h.001Z"/>
    <path class="cls-3" d="m177.834,41.359c2.436,1.032,3.359,2.845,2.371,4.747-.641,1.235-1.723,1.935-3.099,1.813-1.659-.147-2.773-1.065-3.032-2.814.391-.313.384-.624-.002-.935.212-1.669,1.208-2.557,2.819-2.833.307.325.62.363.942.022h0Z"/>
    <path class="cls-3" d="m151.073,41.677c1.76,1.334,2.29,2.698,1.643,4.23-.717,1.697-2.74,2.482-4.394,1.705-1.79-.841-2.489-2.954-1.51-4.652.364-.63.853-1.158,1.602-1.354.886.024,1.773.048,2.659.071h0Z"/>
    <path class="cls-12" d="m151.073,41.677c-.886-.024-1.773-.048-2.659-.071.904-.623,1.792-.679,2.659.071Z"/>
    <path class="cls-16" d="m174.073,44.17c.386.311.393.623.002.935-.232-.311-.23-.623-.002-.935Z"/>
    <path class="cls-16" d="m181.746,44.17c.386.311.394.623.003.936-.231-.311-.228-.623-.003-.936Z"/>
    <path class="cls-16" d="m185.506,41.367c-.315.389-.625.378-.931-.011.313-.225.624-.234.931.011Z"/>
    <path class="cls-12" d="m177.834,41.359c-.322.342-.635.303-.942-.022.32-.241.634-.231.942.022Z"/>
    <path class="cls-10" d="m221.998,69.137c.238-.314-.134-.518-.143-.788.496-.201.964-.083.982.454.015.462-.467.432-.839.334h0Z"/>
    <path class="cls-13" d="m22.399,70.986c.338-.303.655-.249.956.057-.332.2-.651.188-.956-.057Z"/>
    <path class="cls-8" d="m.947,68.357c-.024.269-.468.448-.166.785-.393.062-.873.13-.766-.464.085-.471.517-.507.932-.321Z"/>
    <path class="cls-13" d="m39.716,69.176c-.033-.309-.066-.618-.099-.928.389-.02.597.202.589.554-.005.251-.233.37-.49.374Z"/>
  </g>
  <path class="cls-9" d="m117.416,1.914c-.171-.134-.341-.269-.512-.403.353-.098.568-.019.512.403Z"/>
  <path class="cls-12" d="m83.265,19.719c.191.11.382.22.574.33-.358.18-.575.115-.574-.33Z"/>
  <g>
    <path class="cls-1" d="m263.158,39.247c.844.113,1.711.152,2.383.778.215-.111.196-.298.226-.459.045-.237.082-.474.126-.711.021-.11.057-.223.195-.224.185,0,.198.148.199.277.006.618.147,1.216.251,1.821.111.649.259,1.289.456,1.916.073.233.115.467.136.708.047.524-.1.969-.572,1.237-.682.389-.726.933-.148,1.566.413.453.825.912,1.194,1.401.475.631.411.98-.244,1.416-.418.279-.869.51-1.308.757-.211.118-.424.232-.59.412-.293.316-.397.668-.226,1.087.118.287.274.548.463.791.242.312.498.613.726.934.931,1.314.72,2.027-.764,2.606-.306.119-.618.224-.924.342-.184.071-.371.138-.543.232-.399.217-.485.407-.416.863.057.372.214.713.347,1.061.102.266.206.53.262.812.143.72-.101,1.185-.791,1.454-.244.095-.504.146-.756.219-1.232.353-1.709,1.106-1.48,2.376.059.326.104.649.094.979-.02.672-.298,1.047-.937,1.275-.272.097-.554.12-.838.148-1.315.13-1.795.563-2.094,1.868-.093.406-.162.818-.276,1.218-.431,1.509-1.235,2.105-2.805,1.978-.682-.055-1.127.243-1.543.688-.168.18-.243.414-.329.64-.156.411-.347.805-.581,1.177-.671,1.072-1.648,1.667-2.904,1.606-1.315-.064-2.024.607-2.497,1.712-.216.503-.459.995-.719,1.476-.377.697-.977,1.046-1.772,1.045-.548-.001-1.096-.012-1.644-.017-.909-.01-1.329.265-1.609,1.138-.2.625-.338,1.269-.505,1.905-.067.254-.123.512-.21.759-.153.435-.49.732-.786.677-.396-.074-.581-.368-.652-.737-.221-1.139-.495-2.272-.473-3.445.003-.175.003-.353-.019-.526-.07-.543-.303-1.006-.726-1.36-1.705-1.424-2.177-3.322-2.073-5.433.044-.875.139-1.748.193-2.623.052-.845-.106-1.656-.42-2.442-.204-.509-.377-1.03-.354-1.592.151-.174.152-.347-.003-.519-.042-.377.043-.744.124-1.104.432-1.927.999-3.805,2.107-5.472.057.052.114.103.171.155-.52,1.349-1.089,2.68-1.427,4.093-.262,1.094-.397,2.2-.33,3.324.016.262.071.521.089.783.016.228.125.37.34.423.249.062.286-.156.354-.302.621-1.335,1.389-2.587,2.126-3.857.319-.55.669-1.081,1.008-1.619.07-.111.135-.232.228-.321.695-.659,1.5-.979,2.215.161.47.748.46,1.559.302,2.355-.319,1.615-1.12,2.988-2.313,4.12-.547.519-1.184.88-1.933,1.068-1.197.301-1.645.881-1.642,2.113.003,1.225-.122,2.457.14,3.673.227,1.057.746,1.912,1.69,2.476.492.294.535.285.783-.217.611-1.239,1.24-2.468,1.947-3.656.73-1.227,1.533-2.402,2.477-3.477.199-.226.386-.467.688-.675.106.259.012.452-.045.648-.288.99-.678,1.944-1.019,2.916-.466,1.327-.875,2.667-.847,4.096.003.153-.011.312.024.459.075.31.347.395.578.17.597-.581,1.206-1.155,1.621-1.891.448-.793,1.073-1.438,1.7-2.082.301-.31.656-.466,1.106-.492,1.13-.067,1.992-.607,2.561-1.597.352-.611.581-1.275.821-1.934.407-1.113,1-2.094,1.971-2.812.39-.289.797-.551,1.254-.712,1.61-.564,2.542-1.721,2.973-3.334.17-.636.365-1.263.635-1.864.558-1.244,1.41-2.232,2.645-2.819,1.545-.733,2.27-1.995,2.498-3.613.293-2.078.284-4.15-.183-6.207-.128-.563-.133-1.134-.083-1.702.079-.898.506-1.618,1.202-2.185.203-.166.421-.321.597-.513.314-.343.282-.651-.068-.965-.065-.058-.135-.117-.212-.154-.807-.396-.958-1.074-.819-1.882.041-.237.063-.478.093-.717.044-.041.087-.083.131-.124l.002.002Zm-22.236,21.51c-.981.527-1.127.663-1.643,1.545-.642,1.096-1.199,2.236-1.769,3.371-.263.524-.287,1.034-.15,1.586.054.215.14.295.353.277.506-.043.983-.137,1.404-.47,1.189-.942,1.842-2.189,2.189-3.638.223-.933.213-1.819-.384-2.672h0Z"/>
    <path class="cls-3" d="m263.403,16.457c-.95.628-1.878,1.284-2.744,2.026-.532.456-.823,1.041-.796,1.731.097,2.517.188,5.036.783,7.503.33,1.371.828,2.673,1.565,3.879.173.283.304.582.391.899.036.133.013.263-.107.354-.118.09-.206-.021-.29-.066-1.175-.639-1.916-1.634-2.353-2.88-.343-.978-.471-2.001-.637-3.015-.326-1.988-.583-3.987-.818-5.987-.005-.044-.01-.087-.017-.131-.159-.986-.404-1.197-1.391-1.133-.655.043-1.306.14-1.966.111-.597-.027-1.171-.144-1.712-.405-.167-.081-.314-.18-.243-.398.064-.196.242-.15.386-.15.678,0,1.356.013,2.035-.037,2.298-.17,4.251-1.12,5.962-2.619.461-.404.933-.804,1.26-1.332.497-.801.287-1.595-.52-2.071-.186-.11-.3-.119-.421.086-.167.282-.347.56-.552.814-.506.627-1.156.916-1.97.773-.015-.063-.03-.126-.045-.188.48-.37.96-.74,1.529-1.178-.939-.505-1.821-.979-2.703-1.453-.015-.1-.031-.199-.046-.299.12-.132.236-.04.356.004.473.173.945.347,1.42.511.135.046.279.152.43.006.026-.265-.209-.363-.351-.508-.492-.499-1.002-.983-1.501-1.476-.084-.083-.246-.17-.107-.311.129-.13.238.01.337.083.548.4,1.092.807,1.643,1.205.231.167.472.32.751.397.486.133.734-.005.909-.484.146-.4.114-.824.159-1.236.153-1.417.297-2.835.324-4.262.024-1.261-.648-2.014-1.904-2.149-.678-.073-1.141.256-1.431.833-.305.606-.574,1.23-.859,1.846-.065.139-.132.277-.199.414-.076.156-.189.144-.326.08-.117-.054-.175-.129-.136-.254.052-.167.112-.332.173-.496.445-1.212.895-2.423,1.336-3.636.159-.437.153-.449-.307-.579-.924-.259-1.821-.178-2.685.242-1.017.495-1.76,1.287-2.375,2.215-.864,1.306-1.289,2.77-1.532,4.298-.048.303-.096.607-.123.912-.057.642.221,1.109.825,1.331.533.196,1.083.349,1.623.526.582.191,1.159.396,1.745.723-.395.287-.803.435-1.253.465-1.508.1-2.025.5-2.457,1.983-1.133,3.888-2.259,7.777-3.38,11.668-.547,1.897-1.195,3.754-2.115,5.508-.664,1.268-1.458,2.446-2.41,3.516-.101.114-.203.23-.291.355-.034.049-.032.124-.063.261,1.704.336,3.214.991,4.05,2.7-.277.085-.487.066-.652-.16-.754-1.032-1.838-1.519-3.024-1.842-1.155-.314-1.287-.685-.548-1.633,1.799-2.307,2.866-4.95,3.591-7.754.576-2.228.909-4.507,1.406-6.752.621-2.8,1.241-5.601,1.803-8.414.347-1.739.571-3.502.875-5.25.285-1.638.96-3.09,2.166-4.263,1.185-1.153,2.616-1.744,4.263-1.762.942-.01,1.883.02,2.82-.119.502-.075,1.005-.002,1.501.103.129.027.187.092.186.219,0,.128-.065.181-.188.217-.253.075-.634-.087-.737.242-.085.27.164.53.275.787,1.022,2.381,1.227,4.867.962,7.413-.054.523-.116,1.049-.235,1.559-.086.37-.024.685.128,1.012.231.497.483.983.779,1.445.325.509.495,1.058.518,1.67.097,2.673.195,5.346.231,8.022.023,1.644.04,3.289.084,4.933.041,1.524-.256,3.011-.432,4.511-.01.086-.035.173-.065.254-.036.099-.126.105-.215.097-.096-.008-.172-.058-.171-.157,0-.175.017-.35.03-.525.168-2.186.385-4.368.453-6.561.077-2.482-.152-4.951-.311-7.424-.03-.459-.069-.918-.104-1.377.021-.064.009-.135-.055-.143-.085-.01-.156.04-.189.128h0Z"/>
    <path class="cls-14" d="m252.812,19.847c.382.418.546.917.648,1.474.448,2.455.958,4.899,1.339,7.366.498,3.222.604,6.45.244,9.697-.491,4.427-1.707,8.667-3.221,12.833-.337.927-.793,1.803-1.256,2.673-.06.112-.115.261-.285.175-.127-.064-.071-.185-.046-.287.164-.659.361-1.308.622-1.936,1.435-3.447,2.526-6.996,3.148-10.683.553-3.277.733-6.571.515-9.891-.181-2.76-.592-5.487-1.103-8.201-.036-.189-.035-.39-.222-.579-.221.672-.174,1.353-.318,2-.071-.002-.142-.003-.213-.005,0-1.529,0-3.059,0-4.588.05-.017.099-.033.148-.05v.002Z"/>
    <path class="cls-14" d="m245.102,66.679c-.114-.041-.297-.061-.245-.28.035-.148.097-.29.151-.433,1.29-3.396,2.766-6.714,4.183-10.056.078-.183.172-.354.302-.505.06-.07.129-.118.223-.073.089.043.115.115.081.211-.037.103-.068.208-.108.31-1.356,3.462-2.633,6.956-4.207,10.329-.055.119-.106.24-.167.356-.038.072-.069.168-.212.141h0Z"/>
    <path d="m258.439,57.237c-.25-.495-.268-10.312-.14-10.961.04.078-.037-.045.047-.021.018.005.034.028.045.046.076.119.046.253.046.381.002,3.519.001,7.037.001,10.556h0Z"/>
    <path class="cls-14" d="m251.798,33.724c-.156.965-.31,1.93-.468,2.894-.075.455-.094.466-.453.386-.434-.096-.18-.357-.122-.547.276-.914.566-1.824.85-2.736.064,0,.128.002.192.002h0Z"/>
    <path class="cls-15" d="m252.121,30.039c.106-.926.188-1.854.329-2.774.062-.403-.044-.839.2-1.212l.044.005.044-.005c.09.568-.115,1.114-.132,1.679-.021.71-.156,1.416-.248,2.123-.008.059-.058.112-.09.168-.049.005-.098.01-.147.016h0Z"/>
    <path class="cls-4" d="m252.121,30.039c.049-.005.098-.01.147-.016-.06.751-.038,1.513-.282,2.242-.041.001-.082.002-.122.001.086-.742.171-1.484.257-2.226Z"/>
    <path class="cls-5" d="m237.284,58.093c-.057-.052-.114-.103-.171-.155.09-.339.303-.596.599-.931-.033.481-.219.788-.428,1.086Z"/>
    <path class="cls-12" d="m249.721,55.157c.107-.219.213-.438.319-.657.07.001.14.002.21.003-.047.248-.174.459-.308.667-.074-.004-.147-.008-.221-.012h0Z"/>
    <path class="cls-16" d="m252.662,24.485c.071.002.142.003.213.005.068.364-.086.703-.121,1.055-.037.003-.074,0-.111-.007-.013-.351-.047-.703.018-1.053h0Z"/>
    <path class="cls-8" d="m251.864,32.266c.041,0,.082,0,.122-.001-.02.309.079.632-.112.92-.046.003-.093.006-.139.009l.129-.929h0Z"/>
    <path class="cls-7" d="m234.882,64.513c.155.172.154.345.003.519-.105-.173-.101-.346-.003-.519Z"/>
    <path class="cls-12" d="m251.735,33.194c.046-.003.093-.006.139-.009-.01.182.012.368-.076.539-.064,0-.128-.002-.192-.002.043-.176.086-.351.129-.527h0Z"/>
    <path class="cls-11" d="m259.2,14.22c.015.063.03.126.045.188-.085.065-.154.033-.178-.054-.026-.095.036-.14.132-.135h0Z"/>
    <path class="cls-13" d="m257.98,11.29c.015.1.031.199.046.299-.247-.064-.188-.175-.046-.299Z"/>
    <path class="cls-8" d="m252.644,25.538c.037.008.073.01.111.007-.006.17-.012.339-.018.508l-.044.005-.044-.005c-.02-.171-.055-.343-.005-.515h0Z"/>
    <path class="cls-14" d="m250.251,54.503c-.07-.001-.14-.002-.21-.003.008-.041.007-.086.025-.121.042-.083.065-.227.203-.14.128.079.006.177-.018.265Z"/>
    <path class="cls-16" d="m252.812,19.847c-.05.017-.099.033-.148.05-.027-.075-.061-.16.047-.189.02-.005.067.09.102.139h0Z"/>
    <path class="cls-15" d="m263.403,16.457c.033-.088.104-.139.189-.128.065.008.076.079.055.143-.082-.005-.163-.01-.244-.015Z"/>
    <path class="cls-14" d="m249.721,55.157c.074.004.147.008.221.012-.051.072-.057.21-.205.142-.092-.042-.015-.102-.017-.153Z"/>
    <path class="cls-5" d="m263.158,39.247c-.044.041-.087.083-.131.124-.003-.091.039-.134.131-.124Z"/>
  </g>
</svg>