<?xml version="1.0" encoding="UTF-8"?>
<svg id="Layer_1" data-name="Layer 1" xmlns="http://www.w3.org/2000/svg" viewBox="0 0 222.838 266.731">
  <defs>
    <style>
      .cls-1 {
        fill: #c0a033;
      }

      .cls-2 {
        fill: #c09f32;
      }

      .cls-3 {
        fill: #040404;
      }

      .cls-4 {
        fill: #9f9f9f;
      }

      .cls-5 {
        fill: #d8c380;
      }

      .cls-6 {
        fill: #020202;
      }

      .cls-7 {
        fill: #cfb765;
      }

      .cls-8 {
        fill: #8d8d8d;
      }

      .cls-9 {
        fill: #282828;
      }

      .cls-10 {
        fill: gray;
      }

      .cls-11 {
        fill: #737373;
      }

      .cls-12 {
        fill: #535353;
      }

      .cls-13 {
        fill: #606060;
      }

      .cls-14 {
        fill: #070707;
      }

      .cls-15 {
        fill: #d2d2d2;
      }

      .cls-16 {
        fill: #404040;
      }

      .cls-17 {
        fill: #c1a137;
      }

      .cls-18 {
        fill: #010101;
      }
    </style>
  </defs>
  <g>
    <path class="cls-18" d="m83.265,207.122c-.028-.478-.091-.956-.079-1.433.089-3.649-.708-2.95,3.258-3.867,3.298-.762,6.648-.975,9.96-.026,4.835,1.386,8.122,5.359,8.633,10.387.259,2.552.217,5.12.07,7.669-.174,3.015-2.247,4.967-5.259,5.21-.715.058-1.438.026-2.157.026-22.382,0-44.765-.003-67.147.007-1.937,0-3.868.026-5.444-1.345-.579-.503-.978-.149-1.473.12-7.775,4.218-15.783-.317-16.167-9.154-.091-2.084-.038-4.151.699-6.151,2.159-5.857,7.885-8.79,14.148-7.104,1.251.337,2.283.576,3.251-.497.386-.428.932-.534,1.522-.576,2.164-.152,2.27-.09,2.275,2.132.011,4.958-.008,9.917.009,14.875.008,2.311.178,2.494,2.428,2.495,21.583.009,43.166.01,64.749,0,2.167-.001,2.33-.191,2.371-2.293.022-1.119.028-2.24,0-3.359-.113-4.525-2.716-7.255-7.239-7.631-2.667-.222-5.244.349-7.832.846-.191-.11-.382-.22-.574-.33Zm-60.155,6.263c0-1.753-.016-3.507.008-5.26.01-.718-.181-1.247-.938-1.439-3.295-.834-6.359-.127-7.968,3.406-.681,1.495-.732,3.08-.551,4.684.503,4.462,3.925,6.645,8.215,5.326.952-.293,1.269-.766,1.247-1.697-.04-1.673-.011-3.347-.012-5.02Z"/>
    <path d="m117.416,189.317c.274,3.432.088,6.87.11,10.305.036,5.839.002,11.678.014,17.517.005,2.537.212,2.75,2.712,2.753,7.915.011,15.83.012,23.744,0,2.559-.004,2.731-.183,2.738-2.724.012-4.479-.005-8.958.007-13.437.005-1.905.025-1.909,1.989-1.928.959-.009,1.923.058,2.877-.017,1.078-.084,1.353.384,1.344,1.389-.038,4.479-.016,8.958-.016,13.437,0,.4-.003.8,0,1.2.021,2.063.022,2.08,2.095,2.082,8.155.007,16.309.011,24.464-.002,2.522-.004,2.659-.163,2.664-2.771.008-4.559.033-9.119-.019-13.677-.013-1.179.235-1.827,1.568-1.652,1.48.194,3.361-.653,4.359.386.887.924.268,2.744.279,4.166.033,4.159.031,8.318.006,12.477-.024,4.093-2.097,6.229-6.194,6.248-8.954.042-17.908.007-26.862.027-1.007.002-1.886-.099-2.505-1.031-.533-.802-1.144-.942-1.927-.188-1.043,1.003-2.412,1.2-3.792,1.201-9.913.01-19.827.038-29.74-.013-3.772-.02-5.982-2.186-6.011-5.991-.073-9.598-.005-19.196-.049-28.794-.006-1.223.473-1.518,1.561-1.453,1.354.08,2.714.062,4.072.086.171.134.341.269.512.403Z"/>
    <path class="cls-6" d="m199.073,206.214c-.322-5.844-.801-4.925,4.258-4.944,6.903-.026,11.629,4.427,12.103,11.279.16,2.306.145,4.635.041,6.946-.152,3.394-2.265,5.503-5.656,5.566-4.87.09-9.743-.004-14.614.049-1.18.013-1.505-.413-1.472-1.541.134-4.476-.628-3.593,3.621-3.664,3.194-.053,6.389.009,9.583-.018,2.124-.018,2.282-.197,2.319-2.343.021-1.198.038-2.398-.004-3.595-.167-4.786-2.837-7.482-7.65-7.73-.795-.041-1.594-.006-2.53-.006Z"/>
    <path class="cls-1" d="m94.664,255.271c1.465,1.025,2.633,2.195,2.976,3.957.598,3.074-1.163,5.924-4.231,6.871-2.031.627-4.119.442-6.188.42-1.502-.016-3.391.642-4.411-.288-1.15-1.049-.402-3.018-.423-4.578-.065-4.715-.036-9.432-.017-14.147.008-1.856.04-1.878,1.839-1.903,1.917-.026,3.836-.045,5.752.015.869.027,1.758.161,2.591.405,3.724,1.091,5.081,5.03,2.87,8.226-.222.321-.465.628-.758,1.023Zm-5.44,7.546c.716,0,1.443.077,2.147-.016,1.56-.205,2.527-1.276,2.528-2.68.002-1.395-.976-2.503-2.526-2.683-1.023-.119-2.068-.077-3.103-.069-2.16.015-2.188.025-2.175,2.274.021,3.663-.399,3.189,3.129,3.174Zm-.492-8.697c.74-.03,1.633.11,2.464-.234.937-.387,1.636-1.034,1.681-2.111.047-1.141-.483-1.997-1.553-2.439-.434-.18-.912-.291-1.38-.348-3.641-.438-4.055.009-3.884,3.68.055,1.17.51,1.558,1.588,1.456.315-.03.635-.005,1.083-.005Z"/>
    <path class="cls-1" d="m53.577,256.125c0-2.953.041-5.906-.02-8.858-.025-1.209.335-1.754,1.621-1.685,2.542.135,5.096-.174,7.633.326,4.931.973,8.183,4.884,8.238,9.998.058,5.332-3.063,9.242-8.132,10.289-2.693.556-5.406.233-8.109.342-1.17.047-1.241-.675-1.236-1.554.017-2.953.007-5.905.005-8.858Zm3.732-.092h-.008c0,1.115,0,2.231,0,3.346q0,3.752,3.857,3.412c3.461-.305,5.972-2.927,6.189-6.462.191-3.122-2.061-6.188-5.191-6.851-1.15-.244-2.375-.122-3.565-.188-.895-.05-1.305.325-1.29,1.246.029,1.832.009,3.664.009,5.496Z"/>
    <path class="cls-2" d="m153.852,256.044c0-2.956-.024-5.912.01-8.868.018-1.54.127-1.558,1.921-1.588,1.076-.018,1.88.056,1.813,1.496-.089,1.913.013,3.835-.03,5.751-.023,1.019.362,1.437,1.398,1.414,2.075-.045,4.153-.053,6.228.003,1.163.031,1.539-.46,1.505-1.571-.056-1.836-.045-3.675-.002-5.512.036-1.533.1-1.555,1.703-1.568,1.629-.014,1.785.055,1.792,1.458.029,5.992.028,11.984,0,17.976-.007,1.46-.122,1.502-1.742,1.5-1.631-.002-1.716-.037-1.752-1.506-.046-1.916-.032-3.835-.01-5.752.01-.88-.308-1.327-1.248-1.315-2.156.028-4.313.04-6.468-.006-1.031-.022-1.424.39-1.403,1.406.039,1.917-.063,3.838.028,5.751.072,1.518-.867,1.431-1.868,1.426-.979-.004-1.93.134-1.895-1.389.071-3.034.021-6.071.019-9.107Z"/>
    <path class="cls-17" d="m99.276,266.271c-.258-.71.134-1.275.34-1.861,1.983-5.642,3.97-11.282,5.986-16.912.254-.71.275-1.714,1.272-1.846,1.02-.135,2.078-.199,3.088.077.378.103.547.549.683.933,2.227,6.316,4.458,12.631,6.673,18.951.071.203-.017.462-.033.716-.249.07-.473.175-.701.19q-2.95.186-3.901-2.535c-.871-2.471-.373-2.205-3.13-2.24-.319-.004-.639-.017-.957.002-1.266.077-2.699-.428-3.756.236-.988.621-1.01,2.086-1.384,3.199-.326.971-.818,1.512-1.893,1.363-.764-.105-1.585.222-2.286-.274Zm6.557-8.159c1.517.342,2.791.182,4.057.178.617-.002.878-.39.671-.944-.734-1.964-1.219-4.03-2.355-6.272-.961,2.501-1.748,4.618-2.373,7.038Z"/>
    <path class="cls-17" d="m133.211,266.307c-.162-.953.194-1.599.429-2.266,1.96-5.563,3.971-11.108,5.858-16.695.467-1.381,1.16-1.848,2.586-1.797,1.306.047,2.191.189,2.69,1.667,1.938,5.738,4.019,11.428,6.036,17.14.158.449.272.922.333,1.393.025.19-.091.476-.241.597-.891.718-3.375.027-3.839-1.044-.032-.073-.052-.151-.081-.225q-1.336-3.332-5.022-3.332c-.399,0-.797-.005-1.196,0-2.381.032-2.132-.299-2.991,2.136q-1.045,2.964-4.561,2.427Zm11.468-8.183c-.781-2.292-1.365-4.591-2.625-7.087-.785,2.28-1.438,4.152-2.072,6.031-.264.781.005,1.251.87,1.235,1.187-.022,2.382.147,3.827-.179Z"/>
    <path class="cls-6" d="m22.399,258.389c-7.214-.52-14.427-1.05-21.618-1.844-.302-.337.143-.517.166-.785,8.736-.84,17.472-1.695,26.24-2.123,4.266-.208,8.427.472,12.43,2.014.033.309.066.618.099.928-5.291,2.049-10.739,2.718-16.36,1.868-.302-.306-.618-.361-.956-.057Z"/>
    <path class="cls-6" d="m221.998,256.54c-8.339.95-16.712,1.526-25.079,2.138-4.258.311-8.452-.21-12.52-1.578-.601-.202-1.232-.329-1.672-.834.157-.728.824-.684,1.318-.864,4.746-1.729,9.652-2.088,14.644-1.671,5.176.433,10.352.868,15.527,1.315,2.548.22,5.093.47,7.639.706.009.27.381.473.143.788Z"/>
    <path class="cls-1" d="m130.782,253.591c0,1.993.073,3.989-.015,5.979-.208,4.718-3.386,7.464-8.04,7.059-.896-.078-1.748-.304-2.471-.802-.668-.46-1.789-.728-1.526-1.842.238-1.007,2.275-1.742,3.296-1.338,2.706,1.071,4.796-.164,4.962-3.127.156-2.782.055-5.578.064-8.369.004-1.116-.007-2.232.002-3.348.019-2.238.101-2.254,2.251-2.229,1.152.014,1.533.444,1.503,1.56-.058,2.151-.017,4.305-.017,6.457h-.009Z"/>
    <path class="cls-2" d="m78.122,256.148c0,2.954.026,5.908-.011,8.861-.019,1.506-.123,1.503-1.955,1.541-1.106.023-1.804-.111-1.788-1.515.066-5.747.008-11.495.067-17.242.02-1.972,1.057-2.602,2.958-2.054.884.255.715.953.719,1.548.021,2.954.01,5.907.01,8.861Z"/>
    <path class="cls-3" d="m87.022,231.841c.081-1.877,1.625-3.277,3.467-3.143,1.862.135,3.121,1.652,2.99,3.601-.117,1.744-1.602,3.104-3.33,3.051-1.814-.057-3.208-1.621-3.127-3.508Z"/>
    <path class="cls-3" d="m181.746,231.573c.217-1.668,1.192-2.574,2.828-2.814.306.389.616.4.931.011,2.156.86,3.02,2.094,2.689,3.836-.282,1.482-1.474,2.597-2.926,2.735-1.626.155-2.761-.759-3.52-2.832.391-.313.383-.625-.003-.936Z"/>
    <path class="cls-3" d="m177.834,228.762c2.436,1.032,3.359,2.845,2.371,4.747-.641,1.235-1.723,1.935-3.099,1.813-1.659-.147-2.773-1.065-3.032-2.814.391-.313.384-.624-.002-.935.212-1.669,1.208-2.557,2.819-2.833.307.325.62.363.942.022Z"/>
    <path class="cls-3" d="m151.073,229.08c1.76,1.334,2.29,2.698,1.643,4.23-.717,1.697-2.74,2.482-4.394,1.705-1.79-.841-2.489-2.954-1.51-4.652.364-.63.853-1.158,1.602-1.354.886.024,1.773.048,2.659.071Z"/>
    <path class="cls-12" d="m151.073,229.08c-.886-.024-1.773-.048-2.659-.071.904-.623,1.792-.679,2.659.071Z"/>
    <path class="cls-16" d="m174.073,231.573c.386.311.393.623.002.935-.232-.311-.23-.623-.002-.935Z"/>
    <path class="cls-16" d="m181.746,231.573c.386.311.394.623.003.936-.231-.311-.228-.623-.003-.936Z"/>
    <path class="cls-16" d="m185.506,228.77c-.315.389-.625.378-.931-.011.313-.225.624-.234.931.011Z"/>
    <path class="cls-12" d="m177.834,228.762c-.322.342-.635.303-.942-.022.32-.241.634-.231.942.022Z"/>
    <path class="cls-10" d="m221.998,256.54c.238-.314-.134-.518-.143-.788.496-.201.964-.083.982.454.015.462-.467.432-.839.334Z"/>
    <path class="cls-13" d="m22.399,258.389c.338-.303.655-.249.956.057-.332.2-.651.188-.956-.057Z"/>
    <path class="cls-8" d="m.947,255.76c-.024.269-.468.448-.166.785-.393.062-.873.13-.766-.464.085-.471.517-.507.932-.321Z"/>
    <path class="cls-13" d="m39.716,256.578c-.033-.309-.066-.618-.099-.928.389-.02.597.202.589.554-.005.251-.233.37-.49.374Z"/>
  </g>
  <path class="cls-9" d="m111.67,189.317c-.171-.134-.341-.269-.512-.403.353-.098.568-.019.512.403Z"/>
  <path class="cls-12" d="m111.132,207.122c.191.11.382.22.574.33-.358.18-.575.115-.574-.33Z"/>
  <g>
    <path class="cls-1" d="m137.401,86.443c1.858.249,3.768.333,5.249,1.712.473-.244.431-.658.499-1.012.1-.521.18-1.045.279-1.567.046-.242.125-.491.429-.493.407-.002.435.326.438.61.015,1.361.324,2.679.552,4.01.245,1.431.571,2.839,1.004,4.221.16.512.253,1.028.301,1.559.103,1.154-.221,2.133-1.259,2.725-1.503.857-1.598,2.055-.326,3.45.91.998,1.817,2.008,2.629,3.086,1.047,1.39.905,2.159-.536,3.12-.921.614-1.914,1.124-2.882,1.666-.465.261-.934.511-1.3.907-.644.697-.875,1.471-.497,2.394.26.633.604,1.208,1.02,1.744.533.687,1.098,1.35,1.6,2.058,2.05,2.893,1.585,4.464-1.682,5.74-.674.263-1.361.494-2.037.752-.405.155-.818.304-1.197.51-.879.478-1.068.896-.915,1.901.125.82.471,1.571.764,2.336.225.587.453,1.168.576,1.788.315,1.587-.221,2.61-1.742,3.202-.536.209-1.11.322-1.666.482-2.713.777-3.764,2.435-3.261,5.232.129.718.228,1.43.207,2.156-.044,1.48-.658,2.305-2.063,2.807-.598.214-1.219.264-1.846.326-2.897.287-3.954,1.24-4.612,4.114-.205.894-.357,1.802-.608,2.682-.948,3.324-2.72,4.637-6.177,4.356-1.504-.122-2.483.535-3.397,1.516-.369.396-.535.913-.724,1.409-.344.905-.765,1.772-1.279,2.594-1.479,2.362-3.63,3.672-6.395,3.537-2.897-.141-4.456,1.338-5.499,3.77-.475,1.107-1.011,2.192-1.584,3.252-.83,1.535-2.153,2.304-3.904,2.301-1.207-.002-2.414-.026-3.62-.039-2.003-.022-2.928.585-3.544,2.507-.44,1.376-.744,2.796-1.112,4.196-.147.56-.271,1.128-.462,1.673-.337.959-1.079,1.612-1.73,1.491-.873-.163-1.278-.81-1.436-1.624-.488-2.509-1.09-5.004-1.041-7.588.007-.386.006-.776-.043-1.158-.154-1.196-.668-2.216-1.6-2.994-3.755-3.138-4.795-7.317-4.564-11.966.096-1.928.305-3.85.425-5.777.116-1.861-.234-3.648-.926-5.379-.449-1.122-.831-2.268-.78-3.506.332-.383.335-.764-.006-1.143-.092-.83.095-1.638.273-2.431.952-4.244,2.2-8.38,4.641-12.053.126.114.251.228.377.342-1.145,2.971-2.399,5.903-3.144,9.015-.577,2.41-.875,4.844-.726,7.323.035.577.155,1.148.196,1.724.036.503.274.813.75.931.55.136.629-.343.779-.666,1.367-2.939,3.06-5.698,4.683-8.495.702-1.21,1.474-2.38,2.219-3.566.154-.245.297-.511.503-.706,1.53-1.451,3.303-2.156,4.878.354,1.034,1.648,1.013,3.434.666,5.188-.702,3.557-2.467,6.581-5.095,9.074-1.205,1.143-2.609,1.938-4.258,2.352-2.636.662-3.622,1.939-3.616,4.655.006,2.698-.268,5.41.308,8.09.5,2.329,1.643,4.211,3.722,5.453,1.083.647,1.178.628,1.724-.479,1.346-2.729,2.731-5.436,4.288-8.052,1.609-2.702,3.377-5.292,5.456-7.659.438-.499.85-1.028,1.516-1.487.234.572.025.995-.1,1.426-.634,2.181-1.493,4.283-2.245,6.422-1.027,2.922-1.927,5.874-1.867,9.022.006.338-.025.688.053,1.01.165.684.765.869,1.272.375,1.315-1.279,2.656-2.543,3.571-4.164.985-1.746,2.364-3.167,3.744-4.587.664-.683,1.444-1.025,2.435-1.084,2.49-.148,4.387-1.338,5.641-3.518.775-1.347,1.279-2.808,1.809-4.259.895-2.451,2.203-4.612,4.34-6.194.858-.636,1.756-1.215,2.762-1.567,3.546-1.242,5.6-3.791,6.548-7.343.374-1.4.804-2.781,1.399-4.107,1.23-2.74,3.105-4.917,5.826-6.208,3.402-1.614,5-4.394,5.502-7.957.644-4.577.627-9.141-.404-13.671-.282-1.24-.294-2.497-.183-3.749.175-1.979,1.116-3.564,2.646-4.813.448-.366.927-.707,1.314-1.131.691-.756.621-1.434-.149-2.125-.143-.128-.297-.256-.468-.34-1.778-.872-2.111-2.364-1.804-4.145.09-.523.138-1.053.206-1.579.096-.091.192-.182.289-.273Zm-48.973,47.375c-2.161,1.161-2.482,1.461-3.618,3.403-1.413,2.415-2.642,4.926-3.896,7.425-.579,1.154-.631,2.278-.329,3.494.118.474.309.651.777.611,1.116-.095,2.164-.301,3.092-1.036,2.619-2.074,4.058-4.822,4.82-8.013.491-2.055.469-4.007-.845-5.884Z"/>
    <path class="cls-3" d="m137.941,36.249c-2.092,1.383-4.137,2.828-6.044,4.462-1.173,1.005-1.813,2.293-1.754,3.812.215,5.544.414,11.093,1.723,16.524.728,3.019,1.823,5.889,3.446,8.544.381.623.67,1.281.86,1.981.08.293.028.58-.234.779-.261.198-.455-.046-.639-.146-2.588-1.407-4.22-3.599-5.182-6.342-.755-2.154-1.037-4.408-1.404-6.64-.718-4.379-1.283-8.78-1.803-13.187-.011-.096-.022-.192-.038-.287-.349-2.172-.89-2.636-3.063-2.495-1.443.093-2.877.308-4.33.244-1.316-.059-2.579-.317-3.77-.893-.369-.178-.692-.396-.535-.877.141-.431.533-.331.85-.331,1.494,0,2.987.029,4.482-.082,5.061-.375,9.362-2.467,13.131-5.768,1.015-.889,2.054-1.771,2.776-2.935,1.094-1.764.631-3.513-1.146-4.562-.41-.242-.66-.263-.929.191-.367.621-.764,1.232-1.216,1.793-1.115,1.38-2.547,2.017-4.339,1.703-.034-.138-.067-.277-.101-.415,1.057-.814,2.114-1.629,3.367-2.595-2.068-1.112-4.011-2.156-5.953-3.2-.034-.22-.067-.439-.101-.659.265-.29.52-.087.783.009,1.041.38,2.081.764,3.129,1.125.296.102.614.333.947.013.058-.582-.459-.8-.775-1.119-1.085-1.1-2.206-2.164-3.305-3.25-.184-.182-.542-.375-.235-.685.283-.287.524.022.744.182,1.208.882,2.406,1.778,3.619,2.654.508.367,1.04.705,1.654.874,1.07.295,1.618-.01,2.003-1.066.322-.882.252-1.814.35-2.721.338-3.12.653-6.245.713-9.386.053-2.778-1.426-4.435-4.193-4.732-1.494-.161-2.513.565-3.153,1.835-.672,1.334-1.263,2.709-1.891,4.065-.142.306-.29.61-.438.913-.169.344-.417.318-.719.177-.256-.119-.385-.285-.299-.56.116-.368.247-.731.38-1.093.981-2.67,1.971-5.336,2.943-8.009.35-.963.338-.99-.675-1.275-2.034-.571-4.011-.393-5.913.533-2.241,1.09-3.877,2.834-5.23,4.878-1.904,2.876-2.838,6.101-3.373,9.465-.106.667-.211,1.336-.27,2.009-.125,1.413.488,2.442,1.817,2.931,1.175.433,2.385.768,3.575,1.158,1.282.42,2.552.872,3.843,1.592-.869.631-1.769.959-2.759,1.024-3.321.219-4.46,1.102-5.412,4.369-2.496,8.562-4.975,17.129-7.446,25.699-1.205,4.179-2.633,8.268-4.658,12.13-1.463,2.792-3.212,5.387-5.308,7.744-.224.252-.447.507-.64.782-.076.108-.07.274-.138.574,3.753.74,7.079,2.183,8.92,5.946-.611.187-1.073.146-1.436-.352-1.659-2.273-4.048-3.347-6.659-4.056-2.544-.691-2.835-1.509-1.208-3.597,3.961-5.082,6.313-10.903,7.91-17.078,1.27-4.908,2.001-9.927,3.097-14.871,1.368-6.167,2.734-12.337,3.971-18.531.765-3.83,1.257-7.713,1.928-11.562.628-3.608,2.114-6.807,4.771-9.391,2.612-2.54,5.762-3.842,9.39-3.882,2.076-.023,4.147.045,6.212-.263,1.106-.165,2.214-.004,3.307.227.284.06.41.202.409.483-.002.282-.142.399-.414.479-.557.165-1.397-.192-1.624.532-.186.595.362,1.167.606,1.735,2.25,5.245,2.702,10.72,2.119,16.328-.12,1.151-.256,2.31-.517,3.434-.189.815-.054,1.508.281,2.229.51,1.095,1.064,2.164,1.714,3.183.716,1.122,1.091,2.33,1.139,3.679.213,5.888.428,11.775.509,17.667.05,3.621.087,7.243.185,10.863.091,3.355-.563,6.631-.952,9.936-.022.19-.077.38-.143.56-.08.218-.278.232-.474.215-.212-.018-.379-.127-.378-.347.002-.385.037-.77.067-1.155.37-4.814.848-9.621.998-14.45.17-5.467-.335-10.905-.686-16.35-.065-1.011-.152-2.021-.229-3.032.046-.141.021-.297-.122-.315-.187-.024-.344.087-.416.281Z"/>
    <path class="cls-14" d="m114.614,43.714c.841.922,1.203,2.021,1.427,3.247.987,5.408,2.11,10.79,2.951,16.225,1.097,7.098,1.33,14.205.537,21.358-1.082,9.751-3.759,19.089-7.095,28.265-.742,2.042-1.746,3.971-2.767,5.886-.132.248-.252.573-.628.385-.28-.141-.157-.407-.101-.631.361-1.451.795-2.881,1.37-4.263,3.16-7.593,5.563-15.409,6.933-23.53,1.217-7.217,1.615-14.473,1.135-21.784-.4-6.079-1.303-12.084-2.429-18.062-.078-.416-.078-.86-.489-1.275-.486,1.48-.384,2.98-.701,4.404-.157-.004-.314-.007-.47-.011,0-3.368,0-6.736.001-10.105.109-.037.218-.074.327-.11Z"/>
    <path class="cls-14" d="m97.633,146.86c-.251-.091-.655-.134-.541-.617.077-.326.213-.639.333-.954,2.841-7.479,6.092-14.786,9.213-22.149.171-.403.379-.779.664-1.111.132-.154.284-.26.491-.161.197.095.255.255.178.464-.083.226-.15.458-.238.683-2.986,7.625-5.799,15.32-9.266,22.749-.122.262-.233.53-.369.784-.085.16-.151.369-.466.31Z"/>
    <path d="m127.008,126.065c-.55-1.091-.591-22.712-.308-24.143.087.172-.082-.1.104-.046.04.012.074.062.1.102.167.262.102.557.102.838.004,7.75.003,15.499.003,23.249Z"/>
    <path class="cls-14" d="m112.38,74.278c-.343,2.125-.683,4.251-1.03,6.375-.164,1.003-.207,1.026-.998.851-.956-.212-.395-.787-.269-1.206.607-2.014,1.246-4.018,1.873-6.026.141.002.282.003.423.005Z"/>
    <path class="cls-15" d="m113.092,66.162c.233-2.038.415-4.084.725-6.11.136-.889-.097-1.848.44-2.669,0,0,.096.011.096.011l.097-.011c.198,1.252-.254,2.454-.291,3.697-.046,1.563-.344,3.119-.546,4.677-.017.13-.129.247-.197.371-.108.012-.216.024-.324.035Z"/>
    <path class="cls-4" d="m113.092,66.162c.108-.012.216-.024.324-.035-.132,1.655-.084,3.333-.621,4.937-.09.003-.179.003-.269.002.189-1.635.377-3.269.566-4.904Z"/>
    <path class="cls-5" d="m80.415,127.95c-.126-.114-.251-.228-.377-.342.197-.746.668-1.313,1.319-2.05-.072,1.061-.482,1.736-.942,2.392Z"/>
    <path class="cls-12" d="m107.808,121.484c.234-.483.469-.965.704-1.448.155.002.309.004.463.006-.103.547-.383,1.011-.679,1.468-.163-.009-.325-.017-.488-.026Z"/>
    <path class="cls-16" d="m114.286,53.929c.157.004.314.007.47.011.151.802-.19,1.548-.266,2.324-.082.006-.163.001-.244-.015-.03-.774-.104-1.549.04-2.32Z"/>
    <path class="cls-8" d="m112.526,71.066c.09.001.179,0,.269-.002-.044.68.175,1.393-.247,2.027-.102.007-.204.014-.306.021l.284-2.046Z"/>
    <path class="cls-7" d="m75.124,142.091c.341.379.339.76.006,1.143-.233-.38-.223-.761-.006-1.143Z"/>
    <path class="cls-12" d="m112.242,73.112c.102-.007.204-.014.306-.021-.023.4.027.811-.168,1.187-.141-.002-.282-.003-.423-.005.095-.387.19-.774.285-1.161Z"/>
    <path class="cls-11" d="m128.684,31.322c.034.138.067.277.101.415-.186.143-.34.073-.392-.119-.057-.21.079-.309.291-.296Z"/>
    <path class="cls-13" d="m125.997,24.868c.034.22.067.439.101.659-.544-.141-.415-.386-.101-.659Z"/>
    <path class="cls-8" d="m114.246,56.248c.081.017.162.022.244.015-.013.373-.026.746-.039,1.119,0,0-.097.011-.097.011,0,0-.097-.011-.096-.011-.044-.378-.121-.755-.011-1.134Z"/>
    <path class="cls-14" d="m108.975,120.042c-.154-.002-.309-.004-.463-.006.017-.09.016-.189.055-.267.092-.182.144-.499.447-.31.281.175.013.389-.04.583Z"/>
    <path class="cls-16" d="m114.614,43.714c-.109.037-.218.074-.327.11-.061-.165-.135-.352.102-.416.044-.012.148.198.224.306Z"/>
    <path class="cls-15" d="m137.941,36.249c.071-.194.229-.305.416-.281.142.018.168.174.122.315-.179-.011-.358-.022-.538-.034Z"/>
    <path class="cls-14" d="m107.808,121.484c.163.009.325.017.488.026-.113.158-.124.462-.451.312-.202-.093-.033-.224-.037-.338Z"/>
    <path class="cls-5" d="m137.401,86.443c-.096.091-.192.182-.289.273-.007-.2.086-.295.289-.273Z"/>
  </g>
</svg>